<?xml version="1.0" encoding="UTF-8" standalone="no"?>
<!DOCTYPE svg PUBLIC "-//W3C//DTD SVG 1.1//EN" "http://www.w3.org/Graphics/SVG/1.1/DTD/svg11.dtd">
<svg width="100%" height="100%" viewBox="0 0 1050 200" version="1.1" xmlns="http://www.w3.org/2000/svg" xmlns:xlink="http://www.w3.org/1999/xlink" xml:space="preserve" xmlns:serif="http://www.serif.com/" style="fill-rule:evenodd;clip-rule:evenodd;stroke-linejoin:round;stroke-miterlimit:2;">
    <g id="Shinkofa" transform="matrix(2.16559,0,0,2.28953,-236.24,-1785.53)">
        <path d="M179.971,840.544C179.84,843.064 178.965,845.976 177.345,849.281C175.725,852.585 172.871,855.268 168.781,857.33C164.985,859.227 160.568,860.176 155.529,860.176L154.253,860.176C149.411,860.045 139.595,859.8 124.805,859.44L125.247,842.311C138.04,851.964 147.48,856.79 153.566,856.79L153.762,856.79C161.517,856.79 166.016,855.66 167.259,853.401C167.881,852.255 168.192,851.043 168.192,849.767C168.192,848.555 167.897,847.294 167.308,845.985C165.77,842.58 161.795,838.872 155.382,834.861C148.969,830.85 142.474,826.536 135.897,821.919C129.419,817.368 126.179,811.655 126.179,804.778L126.179,804.386C126.179,799.998 127.325,796.347 129.615,793.433C131.905,790.519 134.973,788.416 138.818,787.123C142.662,785.829 146.891,785.182 151.505,785.182L152.732,785.182C155.84,785.182 159.619,785.346 164.069,785.673C169.108,786.033 173.77,786.966 178.057,788.471L177.664,801.575C177.075,801.182 176.241,800.544 175.161,799.661C173.296,798.189 170.948,796.454 168.118,794.459C165.288,792.463 162.368,790.761 159.357,789.354C157.165,788.307 154.368,787.784 150.965,787.784C149.721,787.784 148.413,787.849 147.038,787.98C141.803,788.471 138.057,790.09 135.799,792.839C135.047,793.788 134.67,794.802 134.67,795.882C134.67,800.626 141.656,806.908 155.627,814.729C171.922,823.857 180.069,832.021 180.069,839.219C180.069,839.677 180.036,840.119 179.971,840.544Z" style="fill:rgb(28,49,72);fill-rule:nonzero;"/>
        <path d="M153.566,856.517L153.567,856.517L153.569,853.15L153.72,853.15L153.74,856.521L153.762,856.522L153.762,853.15C157.222,853.15 159.958,852.929 161.965,852.425C162.553,852.277 163.06,852.111 163.478,851.904C163.62,851.834 163.819,851.697 163.881,851.653C164.188,851.057 164.344,850.428 164.344,849.767C164.344,849.011 164.136,848.229 163.768,847.412C162.432,844.455 158.829,841.38 153.26,837.897C146.79,833.851 140.238,829.499 133.604,824.842L133.603,824.841C126.035,819.525 122.331,812.811 122.331,804.778L122.331,804.386C122.331,799.12 123.778,794.759 126.527,791.262C129.268,787.774 132.927,785.241 137.528,783.693C141.764,782.268 146.422,781.543 151.505,781.543L152.732,781.543C155.921,781.543 159.8,781.709 164.366,782.044C169.781,782.432 174.79,783.441 179.396,785.059C180.942,785.601 181.95,787.015 181.903,788.574L181.511,801.678C181.471,803.018 180.655,804.229 179.387,804.83C178.12,805.43 176.606,805.323 175.447,804.55C174.794,804.114 173.866,803.413 172.667,802.433C170.851,801 168.567,799.315 165.818,797.377C163.18,795.516 160.459,793.929 157.653,792.617L157.623,792.603C155.887,791.774 153.659,791.423 150.965,791.423C149.843,791.423 148.663,791.483 147.424,791.601L147.418,791.602C143.482,791.971 140.568,792.988 138.852,795.056C138.651,795.317 138.518,795.585 138.518,795.882C138.518,797.102 139.468,798.365 140.905,799.901C144.076,803.291 149.66,807.159 157.587,811.596L157.588,811.597C167.904,817.376 175.076,822.845 179.202,827.891C182.433,831.842 183.917,835.651 183.917,839.219C183.917,839.794 183.879,840.35 183.805,840.888L183.804,840.897C183.625,843.763 182.667,847.076 180.836,850.811C178.889,854.786 175.509,858.063 170.59,860.542L170.579,860.548C166.266,862.704 161.255,863.816 155.529,863.816L154.253,863.816C154.216,863.816 154.18,863.816 154.143,863.815C149.302,863.684 139.49,863.438 124.706,863.079C122.584,863.027 120.907,861.359 120.958,859.351L121.4,842.223C121.436,840.841 122.296,839.597 123.62,839.013C124.944,838.429 126.504,838.604 127.647,839.466C135.022,845.03 141.222,848.948 146.277,851.174C149.154,852.44 151.569,853.15 153.566,853.15L153.566,856.517ZM179.971,840.544C180.036,840.119 180.069,839.677 180.069,839.219C180.069,832.021 171.922,823.857 155.627,814.729C141.656,806.908 134.67,800.626 134.67,795.882C134.67,794.802 135.047,793.788 135.799,792.839C138.057,790.09 141.803,788.471 147.038,787.98C148.413,787.849 149.721,787.784 150.965,787.784C154.368,787.784 157.165,788.307 159.357,789.354C162.368,790.761 165.288,792.463 168.118,794.459C170.948,796.454 173.296,798.189 175.161,799.661C176.241,800.544 177.075,801.182 177.664,801.575L178.057,788.471C173.77,786.966 169.108,786.033 164.069,785.673C159.619,785.346 155.84,785.182 152.732,785.182L151.505,785.182C146.891,785.182 142.662,785.829 138.818,787.123C134.973,788.416 131.905,790.519 129.615,793.433C127.325,796.347 126.179,799.998 126.179,804.386L126.179,804.778C126.179,811.655 129.419,817.368 135.897,821.919C142.474,826.536 148.969,830.85 155.382,834.861C161.795,838.872 165.77,842.58 167.308,845.985C167.897,847.294 168.192,848.555 168.192,849.767C168.192,851.043 167.881,852.255 167.259,853.401C166.016,855.66 161.517,856.79 153.762,856.79L153.566,856.79C147.48,856.79 138.04,851.964 125.247,842.311L124.805,859.44C139.595,859.8 149.411,860.045 154.253,860.176L155.529,860.176C160.568,860.176 164.985,859.227 168.781,857.33C172.871,855.268 175.725,852.585 177.345,849.281C178.965,845.976 179.84,843.064 179.971,840.544Z" style="fill:white;"/>
        <path d="M201.517,786.115L201.321,820.078C202.466,814.712 204.805,810.589 208.339,807.71C211.873,804.831 216.568,803.391 222.425,803.391C223.145,803.391 223.897,803.424 224.683,803.489C228.249,803.686 231.685,804.651 234.989,806.385C238.294,808.119 241.034,810.753 243.21,814.287C245.386,817.821 246.474,822.254 246.474,827.587L246.67,859.931L230.768,859.636L230.768,830.287C230.768,826.099 230.105,822.393 228.778,819.17C227.45,815.947 225.721,813.461 223.591,811.71C221.46,809.96 219.215,809.084 216.856,809.084L216.61,809.084C210.677,809.248 206.695,811.996 204.663,817.33C202.631,822.663 201.615,828.994 201.615,836.324L201.615,859.686L185.468,859.686L185.468,786.115L201.517,786.115Z" style="fill:rgb(28,49,72);fill-rule:nonzero;"/>
        <path d="M205.365,786.135L205.253,805.437C205.442,805.272 205.633,805.111 205.827,804.952C210,801.553 215.509,799.751 222.425,799.751C223.235,799.751 224.081,799.787 224.953,799.858C229.07,800.092 233.04,801.2 236.856,803.202C240.736,805.238 243.981,808.306 246.535,812.455C249.012,816.477 250.32,821.507 250.322,827.575L250.518,859.91C250.524,860.891 250.111,861.833 249.372,862.522C248.634,863.211 247.632,863.589 246.595,863.57L230.693,863.276C228.598,863.237 226.92,861.619 226.92,859.636L226.92,830.287C226.92,826.598 226.361,823.33 225.192,820.491C224.124,817.898 222.782,815.867 221.067,814.458C219.724,813.354 218.343,812.724 216.856,812.724L216.657,812.724C212.498,812.858 209.712,814.812 208.283,818.564C206.384,823.549 205.463,829.472 205.463,836.324L205.463,859.686C205.463,861.696 203.74,863.325 201.615,863.325L185.468,863.325C183.343,863.325 181.62,861.696 181.62,859.686L181.62,786.115C181.62,784.105 183.343,782.475 185.468,782.475L201.517,782.475C202.541,782.475 203.523,782.861 204.245,783.548C204.968,784.235 205.371,785.166 205.365,786.135ZM201.517,786.115L185.468,786.115L185.468,859.686L201.615,859.686L201.615,836.324C201.615,828.994 202.631,822.663 204.663,817.33C206.695,811.996 210.677,809.248 216.61,809.084L216.856,809.084C219.215,809.084 221.46,809.96 223.591,811.71C225.721,813.461 227.45,815.947 228.778,819.17C230.105,822.393 230.768,826.099 230.768,830.287L230.768,859.636L246.67,859.931L246.474,827.587C246.474,822.254 245.386,817.821 243.21,814.287C241.034,810.753 238.294,808.119 234.989,806.385C231.685,804.651 228.249,803.686 224.683,803.489C223.897,803.424 223.145,803.391 222.425,803.391C216.568,803.391 211.873,804.831 208.339,807.71C204.805,810.589 202.466,814.712 201.321,820.078L201.517,786.115Z" style="fill:white;"/>
        <path d="M270.818,803.686L270.818,860.078L254.965,860.078L254.965,803.686L270.818,803.686ZM262.67,783.072C265.026,783.072 267.047,783.849 268.732,785.403C270.417,786.958 271.259,788.847 271.259,791.072C271.259,793.264 270.417,795.138 268.732,796.692C267.047,798.246 265.026,799.023 262.67,799.023C260.282,799.023 258.245,798.246 256.56,796.692C254.875,795.138 254.032,793.264 254.032,791.072C254.032,788.847 254.875,786.958 256.56,785.403C258.245,783.849 260.282,783.072 262.67,783.072Z" style="fill:rgb(28,49,72);fill-rule:nonzero;"/>
        <path d="M270.536,800.046L270.818,800.046C272.943,800.046 274.666,801.675 274.666,803.686L274.666,860.078C274.666,862.088 272.943,863.718 270.818,863.718L254.965,863.718C252.84,863.718 251.117,862.088 251.117,860.078L251.117,803.686C251.117,801.739 252.731,800.15 254.763,800.051C254.459,799.816 254.163,799.564 253.873,799.298C251.408,797.024 250.184,794.279 250.184,791.072C250.184,787.824 251.414,785.066 253.873,782.797C256.3,780.559 259.23,779.432 262.67,779.432C266.07,779.432 268.986,780.554 271.418,782.797C273.878,785.066 275.107,787.824 275.107,791.072C275.107,794.279 273.884,797.024 271.418,799.298C271.131,799.563 270.837,799.812 270.536,800.046ZM262.67,783.072C260.282,783.072 258.245,783.849 256.56,785.403C254.875,786.958 254.032,788.847 254.032,791.072C254.032,793.264 254.875,795.138 256.56,796.692C258.245,798.246 260.282,799.023 262.67,799.023C265.026,799.023 267.047,798.246 268.732,796.692C270.417,795.138 271.259,793.264 271.259,791.072C271.259,788.847 270.417,786.958 268.732,785.403C267.047,783.849 265.026,783.072 262.67,783.072ZM270.818,803.686L254.965,803.686L254.965,860.078L270.818,860.078L270.818,803.686Z" style="fill:white;"/>
        <path d="M294.67,803.784L294.474,820.569C295.619,815.203 297.959,811.08 301.492,808.201C305.026,805.322 309.721,803.882 315.578,803.882C316.298,803.882 317.051,803.915 317.836,803.98C321.411,804.176 324.854,805.142 328.166,806.876C331.478,808.61 334.224,811.244 336.405,814.778C338.586,818.311 339.676,822.745 339.676,828.078L339.676,860.176L323.922,860.176L323.922,830.778C323.922,826.589 323.258,822.884 321.931,819.661C320.604,816.438 318.875,813.951 316.744,812.201C314.614,810.45 312.369,809.575 310.009,809.575L309.763,809.575C303.831,809.739 299.848,812.487 297.816,817.821C295.784,823.154 294.768,829.485 294.768,836.814L294.768,860.176L278.621,860.176L278.621,803.784L294.67,803.784Z" style="fill:rgb(28,49,72);fill-rule:nonzero;"/>
        <path d="M298.518,803.824L298.495,805.851C298.655,805.713 298.817,805.577 298.981,805.443C303.153,802.043 308.663,800.242 315.578,800.242C316.388,800.242 317.234,800.278 318.106,800.349C322.23,800.582 326.207,801.69 330.029,803.691C333.918,805.727 337.168,808.794 339.728,812.943C342.213,816.968 343.524,822.003 343.524,828.078L343.524,860.176C343.524,862.187 341.802,863.816 339.676,863.816L323.922,863.816C321.797,863.816 320.074,862.187 320.074,860.176L320.074,830.778C320.074,827.089 319.514,823.821 318.345,820.982C317.277,818.389 315.935,816.357 314.22,814.949C312.877,813.845 311.497,813.215 310.009,813.215L309.81,813.215C305.652,813.349 302.866,815.303 301.436,819.055C299.537,824.04 298.617,829.963 298.617,836.814L298.617,860.176C298.617,862.187 296.894,863.816 294.768,863.816L278.621,863.816C276.496,863.816 274.773,862.187 274.773,860.176L274.773,803.784C274.773,801.774 276.496,800.144 278.621,800.144L294.67,800.144C295.698,800.144 296.683,800.533 297.406,801.224C298.129,801.916 298.529,802.852 298.518,803.824ZM294.67,803.784L278.621,803.784L278.621,860.176L294.768,860.176L294.768,836.814C294.768,829.485 295.784,823.154 297.816,817.821C299.848,812.487 303.831,809.739 309.763,809.575L310.009,809.575C312.369,809.575 314.614,810.45 316.744,812.201C318.875,813.951 320.604,816.438 321.931,819.661C323.258,822.884 323.922,826.589 323.922,830.778L323.922,860.176L339.676,860.176L339.676,828.078C339.676,822.745 338.586,818.311 336.405,814.778C334.224,811.244 331.478,808.61 328.166,806.876C324.854,805.142 321.411,804.176 317.836,803.98C317.051,803.915 316.298,803.882 315.578,803.882C309.721,803.882 305.026,805.322 301.492,808.201C297.959,811.08 295.619,815.203 294.474,820.569L294.67,803.784Z" style="fill:white;"/>
        <path d="M363.038,859.98L347.186,859.98L347.186,786.557L362.989,786.557L362.989,790.63L362.793,835.931L378.4,814.238C381.051,810.213 384.11,807.236 387.578,805.305C389.934,803.964 392.748,803.293 396.02,803.293C397.558,803.293 399.194,803.44 400.928,803.735L400.732,811.636C397.361,810.491 394.335,809.919 391.652,809.919C386.548,809.919 382.703,812.013 380.118,816.201L406.376,859.98L388.167,859.98L370.499,829.649L363.038,840.152L363.038,859.98Z" style="fill:rgb(28,49,72);fill-rule:nonzero;"/>
        <path d="M363.038,863.62L347.186,863.62C345.06,863.62 343.338,861.99 343.338,859.98L343.338,786.557C343.338,784.547 345.06,782.917 347.186,782.917L362.989,782.917C365.115,782.917 366.837,784.547 366.837,786.557L366.837,790.63L366.837,790.645L366.693,824.041L375.172,812.255C378.179,807.706 381.682,804.368 385.603,802.182C388.514,800.526 391.978,799.653 396.02,799.653C397.771,799.653 399.634,799.817 401.608,800.152C403.475,800.469 404.82,802.026 404.775,803.82L404.579,811.722C404.55,812.891 403.928,813.976 402.908,814.638C401.888,815.3 400.594,815.457 399.431,815.062C396.541,814.08 393.952,813.558 391.652,813.558C388.752,813.558 386.425,814.51 384.667,816.41L409.723,858.184C410.399,859.311 410.39,860.692 409.701,861.812C409.012,862.931 407.745,863.62 406.376,863.62L388.167,863.62C386.765,863.62 385.474,862.898 384.797,861.737L370.174,836.633L366.886,841.261L366.886,859.98C366.886,861.99 365.164,863.62 363.038,863.62ZM363.038,859.98L363.038,840.152L370.499,829.649L388.167,859.98L406.376,859.98L380.118,816.201C382.703,812.013 386.548,809.919 391.652,809.919C394.335,809.919 397.361,810.491 400.732,811.636L400.928,803.735C399.194,803.44 397.558,803.293 396.02,803.293C392.748,803.293 389.934,803.964 387.578,805.305C384.11,807.236 381.051,810.213 378.4,814.238L362.793,835.931L362.989,790.63L362.989,786.557L347.186,786.557L347.186,859.98L363.038,859.98Z" style="fill:white;"/>
        <path d="M437.885,801.477C443.905,801.477 449.468,802.778 454.572,805.379C459.676,807.98 463.725,811.497 466.719,815.931C469.713,820.364 471.21,825.199 471.21,830.434C471.21,835.702 469.713,840.553 466.719,844.986C463.725,849.42 459.676,852.937 454.572,855.538C449.468,858.14 443.905,859.44 437.885,859.44C431.865,859.44 426.302,858.14 421.198,855.538C416.094,852.937 412.045,849.42 409.051,844.986C406.057,840.553 404.56,835.702 404.56,830.434C404.56,825.199 406.057,820.364 409.051,815.931C412.045,811.497 416.094,807.98 421.198,805.379C426.302,802.778 431.865,801.477 437.885,801.477ZM431.799,807.023C430.163,806.434 428.625,806.14 427.186,806.14C425.157,806.14 423.39,806.679 421.885,807.759C420.511,808.708 419.488,809.976 418.818,811.563C418.147,813.15 417.811,814.958 417.811,816.986C417.811,819.898 418.482,823.088 419.824,826.557C421.165,830.025 423.047,833.395 425.468,836.667C427.955,840.005 430.474,843.015 433.026,845.698C435.578,848.381 438.179,850.565 440.83,852.25C443.48,853.935 446,854.778 448.388,854.778C450.286,854.778 452.036,854.205 453.64,853.06C456.519,850.998 457.959,847.939 457.959,843.882C457.959,840.512 457.034,836.749 455.186,832.594C453.337,828.438 450.94,824.381 447.995,820.422C442.826,813.583 437.427,809.117 431.799,807.023Z" style="fill:rgb(28,49,72);fill-rule:nonzero;"/>
        <path d="M437.885,797.837C444.565,797.837 450.734,799.288 456.397,802.175C462.1,805.081 466.617,809.018 469.962,813.972C473.361,819.004 475.058,824.492 475.058,830.434C475.058,836.411 473.359,841.915 469.962,846.945C466.617,851.899 462.1,855.836 456.397,858.743C450.734,861.629 444.565,863.08 437.885,863.08C431.205,863.08 425.036,861.629 419.373,858.743C413.67,855.836 409.153,851.899 405.808,846.945C402.411,841.915 400.712,836.411 400.712,830.434C400.712,824.492 402.409,819.004 405.808,813.972C409.153,809.018 413.67,805.081 419.373,802.175C425.036,799.288 431.205,797.837 437.885,797.837ZM437.885,801.477C431.865,801.477 426.302,802.778 421.198,805.379C416.094,807.98 412.045,811.497 409.051,815.931C406.057,820.364 404.56,825.199 404.56,830.434C404.56,835.702 406.057,840.553 409.051,844.986C412.045,849.42 416.094,852.937 421.198,855.538C426.302,858.14 431.865,859.44 437.885,859.44C443.905,859.44 449.468,858.14 454.572,855.538C459.676,852.937 463.725,849.42 466.719,844.986C469.713,840.553 471.21,835.702 471.21,830.434C471.21,825.199 469.713,820.364 466.719,815.931C463.725,811.497 459.676,807.98 454.572,805.379C449.468,802.778 443.905,801.477 437.885,801.477ZM431.799,807.023C437.427,809.117 442.826,813.583 447.995,820.422C450.94,824.381 453.337,828.438 455.186,832.594C457.034,836.749 457.959,840.512 457.959,843.882C457.959,847.939 456.519,850.998 453.64,853.06C452.036,854.205 450.286,854.778 448.388,854.778C446,854.778 443.48,853.935 440.83,852.25C438.179,850.565 435.578,848.381 433.026,845.698C430.474,843.015 427.955,840.005 425.468,836.667C423.047,833.395 421.165,830.025 419.824,826.557C418.482,823.088 417.811,819.898 417.811,816.986C417.811,814.958 418.147,813.15 418.818,811.563C419.488,809.976 420.511,808.708 421.885,807.759C423.39,806.679 425.157,806.14 427.186,806.14C428.625,806.14 430.163,806.434 431.799,807.023ZM430.411,810.418L430.403,810.415C429.261,810.006 428.192,809.779 427.186,809.779C426.05,809.779 425.053,810.055 424.21,810.659L424.154,810.699C423.357,811.249 422.779,811.994 422.391,812.914C421.887,814.104 421.659,815.464 421.659,816.986C421.659,819.519 422.271,822.289 423.437,825.306C424.668,828.487 426.397,831.575 428.617,834.576C431.009,837.786 433.432,840.682 435.887,843.263C438.208,845.703 440.566,847.697 442.977,849.229C444.886,850.443 446.667,851.138 448.388,851.138C449.45,851.138 450.422,850.797 451.319,850.156C453.269,848.759 454.111,846.631 454.111,843.882C454.111,840.93 453.258,837.645 451.639,834.005C449.895,830.086 447.633,826.261 444.851,822.52C440.215,816.393 435.456,812.301 430.411,810.418Z" style="fill:white;"/>
        <path d="M497.664,825.968L497.664,859.587L482.253,859.587L482.253,825.821L478.572,825.821L478.572,823.121L482.155,823.121C481.075,819.255 480.535,815.699 480.535,812.456C480.535,806.786 482.073,802.232 485.149,798.791C488.224,795.351 492.061,792.934 496.658,791.541C501.255,790.149 506.057,789.452 511.063,789.452C514.04,789.452 516.756,789.665 519.21,790.09C521.664,790.516 523.447,791.039 524.56,791.661L521.517,803.735C510.981,800.823 502.556,799.367 496.241,799.367C492.773,799.367 490.073,799.849 488.143,800.814C486.212,801.78 485.247,803.244 485.247,805.207C485.247,809.297 489.321,815.252 497.468,823.072L514.793,823.268L514.793,825.968L497.664,825.968Z" style="fill:rgb(28,49,72);fill-rule:nonzero;"/>
        <path d="M477.401,819.653C476.923,817.115 476.687,814.715 476.687,812.456C476.687,805.798 478.599,800.481 482.21,796.441C485.758,792.472 490.181,789.682 495.484,788.075C500.456,786.569 505.649,785.813 511.063,785.813C514.294,785.813 517.241,786.049 519.904,786.51C522.948,787.038 525.137,787.756 526.517,788.527C527.97,789.339 528.694,790.952 528.303,792.505L525.26,804.579C525.016,805.549 524.361,806.381 523.45,806.882C522.538,807.383 521.449,807.508 520.438,807.228C510.349,804.44 502.288,803.006 496.241,803.006C493.551,803.006 491.438,803.284 489.941,804.032C489.411,804.297 489.095,804.668 489.095,805.207C489.095,806.356 489.655,807.683 490.571,809.251C492.251,812.128 495.113,815.517 499.111,819.451L514.839,819.629C516.946,819.653 518.641,821.275 518.641,823.268L518.641,825.968C518.641,827.978 516.918,829.608 514.793,829.608L501.512,829.608L501.512,859.587C501.512,861.598 499.789,863.227 497.664,863.227L482.253,863.227C480.128,863.227 478.405,861.598 478.405,859.587L478.405,829.457C476.357,829.374 474.724,827.778 474.724,825.821L474.724,823.121C474.724,821.497 475.848,820.122 477.401,819.653ZM497.664,825.968L514.793,825.968L514.793,823.268L497.468,823.072C489.321,815.252 485.247,809.297 485.247,805.207C485.247,803.244 486.212,801.78 488.143,800.814C490.073,799.849 492.773,799.367 496.241,799.367C502.556,799.367 510.981,800.823 521.517,803.735L524.56,791.661C523.447,791.039 521.664,790.516 519.21,790.09C516.756,789.665 514.04,789.452 511.063,789.452C506.057,789.452 501.255,790.149 496.658,791.541C492.061,792.934 488.224,795.351 485.149,798.791C482.073,802.232 480.535,806.786 480.535,812.456C480.535,815.699 481.075,819.255 482.155,823.121L478.572,823.121L478.572,825.821L482.253,825.821L482.253,859.587L497.664,859.587L497.664,825.968Z" style="fill:white;"/>
        <path d="M543.995,831.514C540.331,831.121 537.206,830.262 534.621,828.937C532.036,827.612 530.081,826.009 528.756,824.127C527.431,822.246 526.768,820.258 526.768,818.164C526.768,815.612 527.749,813.182 529.71,810.876C531.672,808.569 534.582,806.696 538.439,805.256C542.297,803.816 546.956,803.097 552.415,803.097L553.298,803.097C565.949,803.293 574.327,806.254 578.429,811.98C582.533,817.706 584.584,823.726 584.584,830.041L584.584,860.078L568.241,860.078L568.241,843.195C565.498,849.412 561.71,853.992 556.877,856.937C552.045,859.882 546.853,861.354 541.301,861.354C538.689,861.354 536.142,861.043 533.66,860.422C531.178,859.8 528.909,858.917 526.851,857.771C524.533,856.495 522.705,854.737 521.366,852.495C520.027,850.254 519.357,847.906 519.357,845.452C519.357,842.966 520.077,840.651 521.517,838.508C522.957,836.364 525.19,834.63 528.216,833.305C531.243,831.98 535.03,831.317 539.578,831.317C540.985,831.317 542.458,831.383 543.995,831.514ZM553.001,805.649C549.538,805.649 546.631,806.303 544.278,807.612C541.927,808.921 540.187,810.606 539.06,812.667C537.933,814.729 537.37,816.904 537.37,819.195C537.37,822.009 538.237,824.528 539.971,826.753C541.705,828.978 543.979,830.09 546.793,830.09L547.431,830.09C552.175,829.796 556.478,828.61 560.339,826.532C564.2,824.454 566.67,822.254 567.75,819.931L567.75,819.637C567.75,815.496 566.582,812.13 564.246,809.538C561.911,806.945 558.228,805.649 553.197,805.649L553.001,805.649ZM568.192,839.219C568.192,839.219 568.143,837.117 568.045,832.913C567.946,828.708 567.865,825.673 567.799,823.808C566.588,825.444 565.051,826.818 563.186,827.931C561.321,829.043 559.406,829.935 557.443,830.606C555.48,831.277 552.993,832.021 549.983,832.839C546.777,833.722 544.265,834.508 542.449,835.195C540.633,835.882 539.128,836.806 537.934,837.968C536.74,839.129 536.143,840.61 536.143,842.409C536.143,842.966 536.208,843.571 536.339,844.225C536.863,846.974 538.433,849.199 541.051,850.9C543.668,852.602 546.662,853.452 550.032,853.452C553.86,853.452 557.443,852.275 560.781,849.919C564.118,847.563 566.588,843.996 568.192,839.219Z" style="fill:rgb(28,49,72);fill-rule:nonzero;"/>
        <path d="M528.452,829.287C527.307,828.317 526.344,827.267 525.554,826.145C523.782,823.63 522.92,820.964 522.92,818.164C522.92,814.821 524.143,811.616 526.712,808.595C529.039,805.858 532.45,803.578 537.027,801.87C541.277,800.285 546.402,799.457 552.415,799.457L553.298,799.457L553.361,799.457C567.672,799.679 576.974,803.461 581.615,809.938C586.18,816.308 588.432,823.016 588.432,830.041L588.432,860.078C588.432,862.088 586.71,863.718 584.584,863.718L568.241,863.718C566.116,863.718 564.393,862.088 564.393,860.078L564.393,855.717C562.731,857.379 560.918,858.804 558.961,859.997C553.483,863.335 547.594,864.994 541.301,864.994C538.352,864.994 535.477,864.642 532.674,863.94C529.843,863.231 527.256,862.219 524.908,860.913C521.997,859.309 519.698,857.102 518.016,854.286C516.337,851.476 515.509,848.529 515.509,845.452C515.509,842.267 516.425,839.301 518.269,836.556C520.069,833.877 522.816,831.659 526.6,830.002C527.192,829.743 527.809,829.504 528.452,829.287ZM543.995,831.514C542.458,831.383 540.985,831.317 539.578,831.317C535.03,831.317 531.243,831.98 528.216,833.305C525.19,834.63 522.957,836.364 521.517,838.508C520.077,840.651 519.357,842.966 519.357,845.452C519.357,847.906 520.027,850.254 521.366,852.495C522.705,854.737 524.533,856.495 526.851,857.771C528.909,858.917 531.178,859.8 533.66,860.422C536.142,861.043 538.689,861.354 541.301,861.354C546.853,861.354 552.045,859.882 556.877,856.937C561.71,853.992 565.498,849.412 568.241,843.195L568.241,860.078L584.584,860.078L584.584,830.041C584.584,823.726 582.533,817.706 578.429,811.98C574.327,806.254 565.949,803.293 553.298,803.097L552.415,803.097C546.956,803.097 542.297,803.816 538.439,805.256C534.582,806.696 531.672,808.569 529.71,810.876C527.749,813.182 526.768,815.612 526.768,818.164C526.768,820.258 527.431,822.246 528.756,824.127C530.081,826.009 532.036,827.612 534.621,828.937C537.206,830.262 540.331,831.121 543.995,831.514ZM553.001,805.649L553.197,805.649C558.228,805.649 561.911,806.945 564.246,809.538C566.582,812.13 567.75,815.496 567.75,819.637L567.75,819.931C566.67,822.254 564.2,824.454 560.339,826.532C556.478,828.61 552.175,829.796 547.431,830.09L546.793,830.09C543.979,830.09 541.705,828.978 539.971,826.753C538.237,824.528 537.37,822.009 537.37,819.195C537.37,816.904 537.933,814.729 539.06,812.667C540.187,810.606 541.927,808.921 544.278,807.612C546.631,806.303 549.538,805.649 553.001,805.649ZM553.001,809.289L553.008,806.736L553.001,806.736L553.001,809.289ZM553.001,809.289C550.319,809.289 548.052,809.735 546.23,810.749C544.549,811.684 543.283,812.866 542.478,814.339C541.64,815.873 541.218,817.491 541.218,819.195C541.218,821.204 541.83,823.005 543.068,824.593C544.019,825.813 545.25,826.451 546.793,826.451L547.306,826.45C551.392,826.181 555.104,825.161 558.436,823.369C561.042,821.966 562.923,820.598 563.893,819.074C563.802,816.166 562.994,813.759 561.318,811.899L561.317,811.898C559.618,810.012 556.857,809.289 553.197,809.289L553.001,809.289ZM553.197,809.289L553.197,806.736L553.196,806.736L553.197,809.289ZM568.192,839.219C566.588,843.996 564.118,847.563 560.781,849.919C557.443,852.275 553.86,853.452 550.032,853.452C546.662,853.452 543.668,852.602 541.051,850.9C538.433,849.199 536.863,846.974 536.339,844.225C536.208,843.571 536.143,842.966 536.143,842.409C536.143,840.61 536.74,839.129 537.934,837.968C539.128,836.806 540.633,835.882 542.449,835.195C544.265,834.508 546.777,833.722 549.983,832.839C552.993,832.021 555.48,831.277 557.443,830.606C559.406,829.935 561.321,829.043 563.186,827.931C565.051,826.818 566.588,825.444 567.799,823.808C567.865,825.673 567.946,828.708 568.045,832.913L568.192,839.219ZM564.165,831.625C562.399,832.599 560.593,833.399 558.751,834.029C556.725,834.721 554.159,835.491 551.054,836.335C548.001,837.176 545.608,837.92 543.879,838.574C542.602,839.057 541.532,839.689 540.693,840.505C540.186,840.998 539.991,841.646 539.991,842.409C539.991,842.759 540.038,843.138 540.12,843.549L540.126,843.58C540.467,845.369 541.526,846.793 543.23,847.901C545.211,849.188 547.482,849.813 550.032,849.813C553.045,849.813 555.853,848.856 558.479,847.002C561.104,845.149 563.01,842.347 564.33,838.677L564.33,838.676L564.197,832.993L564.165,831.625Z" style="fill:white;"/>
    </g>
    <g id="La-Voie" serif:id="La Voie" transform="matrix(0.945162,0,0,0.999256,-86.7685,-674.695)">
        <path d="M124.805,859.98L124.805,786.557L140.609,786.557L140.609,858.164L173.64,855.268L173.64,859.98L124.805,859.98Z" style="fill:rgb(225,143,53);fill-rule:nonzero;"/>
        <path d="M120.226,859.98L120.226,786.557C120.226,784.165 122.276,782.226 124.805,782.226L140.609,782.226C143.138,782.226 145.188,784.165 145.188,786.557L145.188,853.413L173.217,850.956C174.499,850.843 175.773,851.247 176.724,852.068C177.676,852.888 178.218,854.05 178.218,855.268L178.218,859.98C178.218,862.372 176.168,864.311 173.64,864.311L124.805,864.311C122.276,864.311 120.226,862.372 120.226,859.98ZM124.805,859.98L173.64,859.98L173.64,855.268L140.609,858.164L140.609,786.557L124.805,786.557L124.805,859.98Z" style="fill:white;"/>
        <path d="M205.64,831.514C201.975,831.121 198.85,830.262 196.265,828.937C193.681,827.612 191.725,826.009 190.4,824.127C189.075,822.246 188.413,820.258 188.413,818.164C188.413,815.612 189.393,813.182 191.354,810.876C193.316,808.569 196.226,806.696 200.084,805.256C203.941,803.816 208.6,803.097 214.059,803.097L214.942,803.097C227.594,803.293 235.971,806.254 240.074,811.98C244.177,817.706 246.229,823.726 246.229,830.041L246.229,860.078L229.885,860.078L229.885,843.195C227.142,849.412 223.354,853.992 218.522,856.937C213.689,859.882 208.497,861.354 202.946,861.354C200.333,861.354 197.786,861.043 195.304,860.422C192.822,859.8 190.553,858.917 188.495,857.771C186.177,856.495 184.349,854.737 183.01,852.495C181.671,850.254 181.002,847.906 181.002,845.452C181.002,842.966 181.721,840.651 183.161,838.508C184.601,836.364 186.834,834.63 189.86,833.305C192.887,831.98 196.674,831.317 201.222,831.317C202.629,831.317 204.102,831.383 205.64,831.514ZM214.645,805.649C211.182,805.649 208.275,806.303 205.923,807.612C203.571,808.921 201.831,810.606 200.704,812.667C199.577,814.729 199.014,816.904 199.014,819.195C199.014,822.009 199.881,824.528 201.615,826.753C203.349,828.978 205.623,830.09 208.437,830.09L209.075,830.09C213.82,829.796 218.122,828.61 221.983,826.532C225.844,824.454 228.314,822.254 229.394,819.931L229.394,819.637C229.394,815.496 228.226,812.13 225.89,809.538C223.555,806.945 219.872,805.649 214.841,805.649L214.645,805.649ZM229.836,839.219C229.836,839.219 229.787,837.117 229.689,832.913C229.591,828.708 229.509,825.673 229.443,823.808C228.233,825.444 226.695,826.818 224.83,827.931C222.965,829.043 221.051,829.935 219.087,830.606C217.124,831.277 214.638,832.021 211.627,832.839C208.421,833.722 205.91,834.508 204.094,835.195C202.278,835.882 200.773,836.806 199.578,837.968C198.384,839.129 197.787,840.61 197.787,842.409C197.787,842.966 197.852,843.571 197.983,844.225C198.507,846.974 200.077,849.199 202.695,850.9C205.312,852.602 208.306,853.452 211.676,853.452C215.505,853.452 219.087,852.275 222.425,849.919C225.762,847.563 228.233,843.996 229.836,839.219Z" style="fill:rgb(225,143,53);fill-rule:nonzero;"/>
        <path d="M188.756,829.035C187.93,828.244 187.209,827.407 186.59,826.529C184.733,823.892 183.834,821.098 183.834,818.164C183.834,814.671 185.102,811.319 187.786,808.161C190.183,805.343 193.69,802.986 198.403,801.227C202.727,799.614 207.941,798.766 214.059,798.766L214.942,798.766L215.017,798.766C229.644,798.993 239.121,802.93 243.864,809.55C248.517,816.043 250.807,822.881 250.807,830.041L250.807,860.078C250.807,862.47 248.757,864.409 246.229,864.409L229.885,864.409C227.356,864.409 225.306,862.47 225.306,860.078L225.306,857.385C223.958,858.588 222.522,859.651 221.001,860.578C215.4,863.991 209.379,865.685 202.946,865.685C199.932,865.685 196.994,865.325 194.132,864.608C191.235,863.883 188.588,862.847 186.186,861.511C183.161,859.845 180.771,857.552 179.024,854.626C177.28,851.708 176.423,848.648 176.423,845.452C176.423,842.135 177.376,839.044 179.296,836.185C181.164,833.404 184.01,831.094 187.937,829.375C188.205,829.258 188.478,829.144 188.756,829.035ZM205.64,831.514C204.102,831.383 202.629,831.317 201.222,831.317C196.674,831.317 192.887,831.98 189.86,833.305C186.834,834.63 184.601,836.364 183.161,838.508C181.721,840.651 181.002,842.966 181.002,845.452C181.002,847.906 181.671,850.254 183.01,852.495C184.349,854.737 186.177,856.495 188.495,857.771C190.553,858.917 192.822,859.8 195.304,860.422C197.786,861.043 200.333,861.354 202.946,861.354C208.497,861.354 213.689,859.882 218.522,856.937C223.354,853.992 227.142,849.412 229.885,843.195L229.885,860.078L246.229,860.078L246.229,830.041C246.229,823.726 244.177,817.706 240.074,811.98C235.971,806.254 227.594,803.293 214.942,803.097L214.059,803.097C208.6,803.097 203.941,803.816 200.084,805.256C196.226,806.696 193.316,808.569 191.354,810.876C189.393,813.182 188.413,815.612 188.413,818.164C188.413,820.258 189.075,822.246 190.4,824.127C191.725,826.009 193.681,827.612 196.265,828.937C198.85,830.262 201.975,831.121 205.64,831.514ZM229.836,839.219C228.233,843.996 225.762,847.563 222.425,849.919C219.087,852.275 215.505,853.452 211.676,853.452C208.306,853.452 205.312,852.602 202.695,850.9C200.077,849.199 198.507,846.974 197.983,844.225C197.852,843.571 197.787,842.966 197.787,842.409C197.787,840.61 198.384,839.129 199.578,837.968C200.773,836.806 202.278,835.882 204.094,835.195C205.91,834.508 208.421,833.722 211.627,832.839C214.638,832.021 217.124,831.277 219.087,830.606C221.051,829.935 222.965,829.043 224.83,827.931C226.695,826.818 228.233,825.444 229.443,823.808C229.509,825.673 229.591,828.708 229.689,832.913L229.836,839.219ZM225.106,832.79C223.643,833.533 222.156,834.162 220.643,834.679C218.606,835.375 216.026,836.15 212.903,836.998C209.878,837.832 207.508,838.568 205.794,839.216C204.62,839.66 203.633,840.236 202.861,840.987C202.485,841.353 202.366,841.843 202.366,842.409C202.366,842.719 202.409,843.056 202.482,843.42L202.489,843.458C202.795,845.064 203.758,846.336 205.288,847.331C207.148,848.54 209.282,849.121 211.676,849.121C214.534,849.121 217.195,848.206 219.686,846.448C222.176,844.69 223.977,842.034 225.24,838.57L225.241,838.569L225.111,833.008L225.106,832.79ZM214.645,805.649L214.841,805.649C219.872,805.649 223.555,806.945 225.89,809.538C228.226,812.13 229.394,815.496 229.394,819.637L229.394,819.931C228.314,822.254 225.844,824.454 221.983,826.532C218.122,828.61 213.82,829.796 209.075,830.09L208.437,830.09C205.623,830.09 203.349,828.978 201.615,826.753C199.881,824.528 199.014,822.009 199.014,819.195C199.014,816.904 199.577,814.729 200.704,812.667C201.831,810.606 203.571,808.921 205.923,807.612C208.275,806.303 211.182,805.649 214.645,805.649ZM214.645,809.98L214.665,807.428L214.645,807.428L214.645,809.98ZM214.645,809.98C212.111,809.98 209.966,810.387 208.244,811.345C206.692,812.209 205.516,813.296 204.771,814.657C203.988,816.09 203.593,817.602 203.593,819.195C203.593,821.051 204.157,822.715 205.301,824.183C206.103,825.212 207.136,825.76 208.437,825.76L208.927,825.759C212.888,825.494 216.488,824.506 219.719,822.768C222.096,821.488 223.856,820.264 224.799,818.89C224.684,816.249 223.941,814.051 222.405,812.347C220.827,810.595 218.241,809.98 214.841,809.98L214.645,809.98Z" style="fill:white;"/>
        <path d="M326.621,858.755L326.032,860.078L318.572,860.078L287.701,786.409L304.584,786.409L307.137,792.544L329.811,846.581L346.744,808.464L356.167,786.459L359.063,786.459L326.67,858.755L326.621,858.755Z" style="fill:rgb(225,143,53);fill-rule:nonzero;"/>
        <path d="M330.599,860.979L330.253,861.758C329.538,863.365 327.875,864.409 326.032,864.409L318.572,864.409C316.695,864.409 315.007,863.325 314.315,861.674L283.444,788.005C282.885,786.672 283.061,785.163 283.913,783.976C284.766,782.789 286.184,782.079 287.701,782.079L304.584,782.079C306.466,782.079 308.156,783.167 308.845,784.824L311.395,790.953L329.932,835.129L342.511,806.812L351.923,784.833C352.623,783.198 354.302,782.128 356.167,782.128L359.063,782.128C360.599,782.128 362.032,782.856 362.88,784.067C363.728,785.278 363.878,786.811 363.279,788.149L330.886,860.445C330.803,860.63 330.707,860.809 330.599,860.979ZM322.261,860.078C322.389,860.453 322.571,860.814 322.807,861.151C323.655,862.359 325.087,863.085 326.621,863.085C325.104,863.07 323.692,862.344 322.853,861.146C322.618,860.811 322.437,860.451 322.31,860.078L326.032,860.078L326.621,858.755L326.67,858.755L359.063,786.459L356.167,786.459L346.744,808.464L329.811,846.581L307.137,792.544L304.584,786.409L287.701,786.409L318.572,860.078L322.261,860.078Z" style="fill:white;"/>
        <path d="M390.425,801.477C396.445,801.477 402.008,802.778 407.112,805.379C412.216,807.98 416.265,811.497 419.259,815.931C422.253,820.364 423.75,825.199 423.75,830.434C423.75,835.702 422.253,840.553 419.259,844.986C416.265,849.42 412.216,852.937 407.112,855.538C402.008,858.14 396.445,859.44 390.425,859.44C384.404,859.44 378.842,858.14 373.738,855.538C368.633,852.937 364.584,849.42 361.591,844.986C358.597,840.553 357.1,835.702 357.1,830.434C357.1,825.199 358.597,820.364 361.591,815.931C364.584,811.497 368.633,807.98 373.738,805.379C378.842,802.778 384.404,801.477 390.425,801.477ZM384.339,807.023C382.703,806.434 381.165,806.14 379.725,806.14C377.697,806.14 375.93,806.679 374.425,807.759C373.051,808.708 372.028,809.976 371.357,811.563C370.687,813.15 370.351,814.958 370.351,816.986C370.351,819.898 371.022,823.088 372.364,826.557C373.705,830.025 375.586,833.395 378.008,836.667C380.494,840.005 383.014,843.015 385.566,845.698C388.118,848.381 390.719,850.565 393.37,852.25C396.02,853.935 398.539,854.778 400.928,854.778C402.826,854.778 404.576,854.205 406.179,853.06C409.059,850.998 410.499,847.939 410.499,843.882C410.499,840.512 409.574,836.749 407.725,832.594C405.877,828.438 403.48,824.381 400.535,820.422C395.366,813.583 389.967,809.117 384.339,807.023Z" style="fill:rgb(225,143,53);fill-rule:nonzero;"/>
        <path d="M390.425,797.146C397.23,797.146 403.514,798.626 409.284,801.566C415.101,804.53 419.706,808.547 423.118,813.6C426.593,818.746 428.329,824.357 428.329,830.434C428.329,836.546 426.592,842.174 423.118,847.317C419.706,852.37 415.101,856.387 409.284,859.351C403.514,862.291 397.23,863.771 390.425,863.771C383.62,863.771 377.335,862.291 371.566,859.351C365.749,856.387 361.143,852.37 357.732,847.317C354.258,842.174 352.521,836.546 352.521,830.434C352.521,824.357 354.257,818.746 357.732,813.6C361.143,808.547 365.749,804.53 371.566,801.566C377.335,798.626 383.62,797.146 390.425,797.146ZM390.425,801.477C384.404,801.477 378.842,802.778 373.738,805.379C368.633,807.98 364.584,811.497 361.591,815.931C358.597,820.364 357.1,825.199 357.1,830.434C357.1,835.702 358.597,840.553 361.591,844.986C364.584,849.42 368.633,852.937 373.738,855.538C378.842,858.14 384.404,859.44 390.425,859.44C396.445,859.44 402.008,858.14 407.112,855.538C412.216,852.937 416.265,849.42 419.259,844.986C422.253,840.553 423.75,835.702 423.75,830.434C423.75,825.199 422.253,820.364 419.259,815.931C416.265,811.497 412.216,807.98 407.112,805.379C402.008,802.778 396.445,801.477 390.425,801.477ZM384.339,807.023C389.967,809.117 395.366,813.583 400.535,820.422C403.48,824.381 405.877,828.438 407.725,832.594C409.574,836.749 410.499,840.512 410.499,843.882C410.499,847.939 409.059,850.998 406.179,853.06C404.576,854.205 402.826,854.778 400.928,854.778C398.539,854.778 396.02,853.935 393.37,852.25C390.719,850.565 388.118,848.381 385.566,845.698C383.014,843.015 380.494,840.005 378.008,836.667C375.586,833.395 373.705,830.025 372.364,826.557C371.022,823.088 370.351,819.898 370.351,816.986C370.351,814.958 370.687,813.15 371.357,811.563C372.028,809.976 373.051,808.708 374.425,807.759C375.93,806.679 377.697,806.14 379.725,806.14C381.165,806.14 382.703,806.434 384.339,807.023ZM382.687,811.062L382.669,811.056C381.624,810.683 380.647,810.471 379.725,810.471C378.76,810.471 377.908,810.696 377.192,811.21L377.125,811.257C376.438,811.731 375.944,812.378 375.609,813.171C375.138,814.286 374.93,815.561 374.93,816.986C374.93,819.447 375.53,822.137 376.664,825.069C377.873,828.194 379.573,831.229 381.755,834.178C384.129,837.364 386.533,840.239 388.97,842.801C391.247,845.195 393.559,847.152 395.924,848.656C397.693,849.78 399.334,850.447 400.928,850.447C401.831,850.447 402.655,850.15 403.418,849.605C405.192,848.334 405.92,846.383 405.92,843.882C405.92,841.01 405.081,837.815 403.505,834.273C401.782,830.4 399.545,826.619 396.801,822.928C392.265,816.931 387.624,812.907 382.687,811.062Z" style="fill:white;"/>
        <path d="M447.897,803.686L447.897,860.078L432.045,860.078L432.045,803.686L447.897,803.686ZM439.75,783.072C442.106,783.072 444.126,783.849 445.811,785.403C447.496,786.958 448.339,788.847 448.339,791.072C448.339,793.264 447.496,795.138 445.811,796.692C444.126,798.246 442.106,799.023 439.75,799.023C437.361,799.023 435.325,798.246 433.64,796.692C431.955,795.138 431.112,793.264 431.112,791.072C431.112,788.847 431.955,786.958 433.64,785.403C435.325,783.849 437.361,783.072 439.75,783.072Z" style="fill:rgb(225,143,53);fill-rule:nonzero;"/>
        <path d="M449.264,799.551C451.125,800.101 452.476,801.744 452.476,803.686L452.476,860.078C452.476,862.47 450.426,864.409 447.897,864.409L432.045,864.409C429.516,864.409 427.466,862.47 427.466,860.078L427.466,803.686C427.466,801.872 428.644,800.319 430.316,799.674C427.787,797.287 426.533,794.417 426.533,791.072C426.533,787.63 427.836,784.707 430.443,782.303C433.011,779.934 436.11,778.741 439.75,778.741C443.348,778.741 446.434,779.929 449.008,782.303C451.615,784.707 452.918,787.63 452.918,791.072C452.918,794.359 451.706,797.188 449.264,799.551ZM447.897,803.686L432.045,803.686L432.045,860.078L447.897,860.078L447.897,803.686ZM439.75,783.072C437.361,783.072 435.325,783.849 433.64,785.403C431.955,786.958 431.112,788.847 431.112,791.072C431.112,793.264 431.955,795.138 433.64,796.692C435.325,798.246 437.361,799.023 439.75,799.023C442.106,799.023 444.126,798.246 445.811,796.692C447.496,795.138 448.339,793.264 448.339,791.072C448.339,788.847 447.496,786.958 445.811,785.403C444.126,783.849 442.106,783.072 439.75,783.072Z" style="fill:white;"/>
        <path d="M471.701,831.317C472.748,835.015 474.695,838.418 477.541,841.526C480.388,844.634 483.693,847.097 487.456,848.913C491.218,850.729 494.916,851.636 498.548,851.636C502.31,851.636 505.631,850.598 508.511,848.52C511.39,846.442 513.484,843.244 514.793,838.925L517.64,838.925C516.494,843.211 514.425,847.031 511.431,850.385C508.437,853.739 504.83,856.356 500.609,858.238C496.388,860.119 491.905,861.06 487.161,861.06C481.468,861.06 476.216,859.751 471.406,857.133C466.597,854.516 462.785,850.966 459.971,846.483C457.157,842 455.75,837.125 455.75,831.857C455.75,826.557 457.157,821.665 459.971,817.182C462.785,812.7 466.597,809.15 471.406,806.532C476.216,803.915 481.468,802.606 487.161,802.606C492.756,802.606 497.934,803.866 502.695,806.385C507.456,808.904 511.235,812.25 514.032,816.422C516.83,820.594 518.229,825.052 518.229,829.796L518.229,830.876L471.701,831.317ZM494.965,828.52C498.466,828.52 500.216,827.405 500.216,825.175C500.216,823.666 499.398,821.682 497.762,819.222C495.406,815.55 492.568,812.574 489.247,810.294C485.926,808.015 482.711,806.876 479.603,806.876C476.102,806.876 473.304,808.394 471.21,811.429C469.901,813.323 469.247,815.87 469.247,819.069C469.247,821.942 469.754,825.092 470.768,828.52L494.965,828.52Z" style="fill:rgb(225,143,53);fill-rule:nonzero;"/>
        <path d="M519.598,835.01C520.237,835.296 520.806,835.722 521.252,836.264C522.12,837.318 522.425,838.691 522.079,839.986C520.76,844.921 518.376,849.318 514.93,853.179C511.508,857.012 507.385,860.005 502.561,862.155C497.727,864.31 492.594,865.391 487.161,865.391C480.642,865.391 474.631,863.885 469.123,860.887C463.617,857.891 459.255,853.826 456.034,848.694C452.794,843.534 451.171,837.922 451.171,831.857C451.171,825.758 452.796,820.13 456.034,814.971C459.255,809.84 463.617,805.775 469.123,802.778C474.631,799.781 480.642,798.275 487.161,798.275C493.562,798.275 499.484,799.723 504.931,802.605C510.38,805.489 514.697,809.327 517.899,814.102C521.181,818.996 522.807,824.23 522.807,829.796L522.807,830.876C522.807,832.815 521.459,834.459 519.598,835.01ZM512.348,835.263L478.586,835.583C479.28,836.655 480.087,837.69 481.002,838.69C483.454,841.367 486.296,843.491 489.537,845.055C492.597,846.532 495.594,847.306 498.548,847.306C501.259,847.306 503.659,846.574 505.734,845.077C507.919,843.5 509.398,841.009 510.391,837.732C510.709,836.682 511.421,835.817 512.348,835.263ZM471.701,831.317L518.229,830.876L518.229,829.796C518.229,825.052 516.83,820.594 514.032,816.422C511.235,812.25 507.456,808.904 502.695,806.385C497.934,803.866 492.756,802.606 487.161,802.606C481.468,802.606 476.216,803.915 471.406,806.532C466.597,809.15 462.785,812.7 459.971,817.182C457.157,821.665 455.75,826.557 455.75,831.857C455.75,837.125 457.157,842 459.971,846.483C462.785,850.966 466.597,854.516 471.406,857.133C476.216,859.751 481.468,861.06 487.161,861.06C491.905,861.06 496.388,860.119 500.609,858.238C504.83,856.356 508.437,853.739 511.431,850.385C514.425,847.031 516.494,843.211 517.64,838.925L514.793,838.925C513.484,843.244 511.39,846.442 508.511,848.52C505.631,850.598 502.31,851.636 498.548,851.636C494.916,851.636 491.218,850.729 487.456,848.913C483.693,847.097 480.388,844.634 477.541,841.526C474.695,838.418 472.748,835.015 471.701,831.317ZM494.965,828.52L470.768,828.52C469.754,825.092 469.247,821.942 469.247,819.069C469.247,815.87 469.901,813.323 471.21,811.429C473.304,808.394 476.102,806.876 479.603,806.876C482.711,806.876 485.926,808.015 489.247,810.294C492.568,812.574 495.406,815.55 497.762,819.222C499.398,821.682 500.216,823.666 500.216,825.175C500.216,827.405 498.466,828.52 494.965,828.52ZM495.418,824.168C495.129,823.427 494.575,822.564 493.887,821.529L493.848,821.469C491.827,818.319 489.406,815.755 486.558,813.8C484.147,812.146 481.859,811.207 479.603,811.207C477.679,811.207 476.196,812.128 475.045,813.796L475.043,813.799C474.145,815.098 473.826,816.874 473.826,819.069C473.826,820.677 474.014,822.383 474.382,824.189L494.965,824.189C495.107,824.189 495.262,824.181 495.418,824.168Z" style="fill:white;"/>
    </g>
</svg>
