<?xml version="1.0" encoding="UTF-8" standalone="no"?><!-- Generator: Gravit.io --><svg xmlns="http://www.w3.org/2000/svg" xmlns:xlink="http://www.w3.org/1999/xlink" style="isolation:isolate" viewBox="0 0 1000 1000" width="1000pt" height="1000pt"><defs><clipPath id="_clipPath_FJ3PVzYtddM3FYA6EYzTwpXrD8L3Hz6e"><rect width="1000" height="1000"/></clipPath></defs><g clip-path="url(#_clipPath_FJ3PVzYtddM3FYA6EYzTwpXrD8L3Hz6e)"><mask id="_mask_GMBBXczgl0ckZ0q937prUbRT7sDYM132" x="-200%" y="-200%" width="400%" height="400%"><rect x="-200%" y="-200%" width="400%" height="400%" style="fill:white;"/><path d=" M 499.546 920.324 L 505.226 934.184 L 505.226 934.184 Q 499.546 938.047 490.968 940.206 L 490.968 940.206 L 490.968 940.206 Q 482.39 942.364 472.733 942.364 L 472.733 942.364 L 472.733 942.364 Q 460.691 942.364 452.283 939.354 L 452.283 939.354 L 452.283 939.354 Q 443.876 936.343 439.559 930.947 L 439.559 930.947 L 439.559 930.947 Q 435.242 925.55 435.242 918.62 L 435.242 918.62 L 435.242 918.62 Q 435.242 912.258 438.764 907.372 L 438.764 907.372 L 438.764 907.372 Q 442.286 902.487 448.421 900.101 L 448.421 900.101 L 448.421 900.101 Q 443.763 897.602 441.206 893.284 L 441.206 893.284 L 441.206 893.284 Q 438.65 888.967 438.65 883.628 L 438.65 883.628 L 438.65 883.628 Q 438.65 877.152 442.626 871.812 L 442.626 871.812 L 442.626 871.812 Q 446.603 866.472 454.669 863.291 L 454.669 863.291 L 454.669 863.291 Q 462.736 860.11 474.438 860.11 L 474.438 860.11 L 474.438 860.11 Q 482.163 860.11 489.548 861.644 L 489.548 861.644 L 489.548 861.644 Q 496.932 863.177 502.386 865.791 L 502.386 865.791 L 497.273 879.878 L 497.273 879.878 Q 486.821 874.993 475.119 874.993 L 475.119 874.993 L 475.119 874.993 Q 466.258 874.993 461.77 877.663 L 461.77 877.663 L 461.77 877.663 Q 457.282 880.333 457.282 884.877 L 457.282 884.877 L 457.282 884.877 Q 457.282 889.081 460.293 891.296 L 460.293 891.296 L 460.293 891.296 Q 463.304 893.512 469.439 893.512 L 469.439 893.512 L 491.138 893.512 L 491.138 908.054 L 468.302 908.054 L 468.302 908.054 Q 461.372 908.054 457.623 910.44 L 457.623 910.44 L 457.623 910.44 Q 453.874 912.826 453.874 917.37 L 453.874 917.37 L 453.874 917.37 Q 453.874 922.142 458.702 924.812 L 458.702 924.812 L 458.702 924.812 Q 463.531 927.481 473.529 927.481 L 473.529 927.481 L 473.529 927.481 Q 480.573 927.481 487.616 925.607 L 487.616 925.607 L 487.616 925.607 Q 494.66 923.732 499.546 920.324 L 499.546 920.324 Z  M 531.698 887.945 L 531.698 887.945 Q 534.879 883.514 540.275 881.242 L 540.275 881.242 L 540.275 881.242 Q 545.672 878.969 552.716 878.969 L 552.716 878.969 L 552.716 895.329 L 552.716 895.329 Q 549.762 895.102 548.739 895.102 L 548.739 895.102 L 548.739 895.102 Q 541.127 895.102 536.81 899.363 L 536.81 899.363 L 536.81 899.363 Q 532.493 903.623 532.493 912.144 L 532.493 912.144 L 532.493 941.001 L 514.769 941.001 L 514.769 879.878 L 531.698 879.878 L 531.698 887.945 Z  M 641.559 878.969 L 641.559 878.969 Q 653.034 878.969 659.794 885.729 L 659.794 885.729 L 659.794 885.729 Q 666.554 892.489 666.554 906.009 L 666.554 906.009 L 666.554 941.001 L 648.831 941.001 L 648.831 908.736 L 648.831 908.736 Q 648.831 901.464 645.82 897.886 L 645.82 897.886 L 645.82 897.886 Q 642.809 894.307 637.242 894.307 L 637.242 894.307 L 637.242 894.307 Q 630.994 894.307 627.358 898.34 L 627.358 898.34 L 627.358 898.34 Q 623.722 902.373 623.722 910.326 L 623.722 910.326 L 623.722 941.001 L 605.999 941.001 L 605.999 908.736 L 605.999 908.736 Q 605.999 894.307 594.411 894.307 L 594.411 894.307 L 594.411 894.307 Q 588.276 894.307 584.64 898.34 L 584.64 898.34 L 584.64 898.34 Q 581.005 902.373 581.005 910.326 L 581.005 910.326 L 581.005 941.001 L 563.281 941.001 L 563.281 879.878 L 580.209 879.878 L 580.209 886.922 L 580.209 886.922 Q 583.618 883.059 588.56 881.014 L 588.56 881.014 L 588.56 881.014 Q 593.502 878.969 599.41 878.969 L 599.41 878.969 L 599.41 878.969 Q 605.886 878.969 611.112 881.526 L 611.112 881.526 L 611.112 881.526 Q 616.338 884.082 619.519 888.967 L 619.519 888.967 L 619.519 888.967 Q 623.268 884.196 629.005 881.583 L 629.005 881.583 L 629.005 881.583 Q 634.743 878.969 641.559 878.969 L 641.559 878.969 Z  M 682.459 941.001 L 682.459 879.878 L 700.183 879.878 L 700.183 941.001 L 682.459 941.001 Z  M 691.321 871.357 L 691.321 871.357 Q 686.436 871.357 683.368 868.517 L 683.368 868.517 L 683.368 868.517 Q 680.301 865.677 680.301 861.473 L 680.301 861.473 L 680.301 861.473 Q 680.301 857.27 683.368 854.429 L 683.368 854.429 L 683.368 854.429 Q 686.436 851.589 691.321 851.589 L 691.321 851.589 L 691.321 851.589 Q 696.206 851.589 699.274 854.316 L 699.274 854.316 L 699.274 854.316 Q 702.341 857.042 702.341 861.133 L 702.341 861.133 L 702.341 861.133 Q 702.341 865.563 699.274 868.46 L 699.274 868.46 L 699.274 868.46 Q 696.206 871.357 691.321 871.357 L 691.321 871.357 Z  M 748.808 925.55 L 753.466 938.047 L 753.466 938.047 Q 750.853 939.979 747.047 940.944 L 747.047 940.944 L 747.047 940.944 Q 743.241 941.91 739.151 941.91 L 739.151 941.91 L 739.151 941.91 Q 728.131 941.91 722.223 936.343 L 722.223 936.343 L 722.223 936.343 Q 716.316 930.776 716.316 919.983 L 716.316 919.983 L 716.316 866.359 L 734.039 866.359 L 734.039 881.242 L 749.149 881.242 L 749.149 894.875 L 734.039 894.875 L 734.039 919.756 L 734.039 919.756 Q 734.039 923.619 735.97 925.72 L 735.97 925.72 L 735.97 925.72 Q 737.902 927.822 741.537 927.822 L 741.537 927.822 L 741.537 927.822 Q 745.627 927.822 748.808 925.55 L 748.808 925.55 Z  M 792.321 927.709 L 792.321 927.709 Q 797.093 927.709 800.785 926.288 L 800.785 926.288 L 800.785 926.288 Q 804.478 924.868 807.659 921.801 L 807.659 921.801 L 817.089 932.026 L 817.089 932.026 Q 808.454 941.91 791.867 941.91 L 791.867 941.91 L 791.867 941.91 Q 781.528 941.91 773.576 937.877 L 773.576 937.877 L 773.576 937.877 Q 765.623 933.844 761.306 926.686 L 761.306 926.686 L 761.306 926.686 Q 756.988 919.529 756.988 910.44 L 756.988 910.44 L 756.988 910.44 Q 756.988 901.464 761.249 894.25 L 761.249 894.25 L 761.249 894.25 Q 765.509 887.036 772.951 883.003 L 772.951 883.003 L 772.951 883.003 Q 780.392 878.969 789.708 878.969 L 789.708 878.969 L 789.708 878.969 Q 798.456 878.969 805.614 882.662 L 805.614 882.662 L 805.614 882.662 Q 812.771 886.354 817.032 893.341 L 817.032 893.341 L 817.032 893.341 Q 821.292 900.328 821.292 909.872 L 821.292 909.872 L 776.075 918.62 L 776.075 918.62 Q 778.006 923.164 782.153 925.436 L 782.153 925.436 L 782.153 925.436 Q 786.3 927.709 792.321 927.709 L 792.321 927.709 Z  M 789.708 892.376 L 789.708 892.376 Q 783.005 892.376 778.802 896.693 L 778.802 896.693 L 778.802 896.693 Q 774.598 901.01 774.371 908.622 L 774.371 908.622 L 804.137 902.828 L 804.137 902.828 Q 802.887 898.056 799.024 895.216 L 799.024 895.216 L 799.024 895.216 Q 795.162 892.376 789.708 892.376 L 789.708 892.376 Z " fill="black" stroke="none"/></mask><path d=" M 499.546 920.324 L 505.226 934.184 L 505.226 934.184 Q 499.546 938.047 490.968 940.206 L 490.968 940.206 L 490.968 940.206 Q 482.39 942.364 472.733 942.364 L 472.733 942.364 L 472.733 942.364 Q 460.691 942.364 452.283 939.354 L 452.283 939.354 L 452.283 939.354 Q 443.876 936.343 439.559 930.947 L 439.559 930.947 L 439.559 930.947 Q 435.242 925.55 435.242 918.62 L 435.242 918.62 L 435.242 918.62 Q 435.242 912.258 438.764 907.372 L 438.764 907.372 L 438.764 907.372 Q 442.286 902.487 448.421 900.101 L 448.421 900.101 L 448.421 900.101 Q 443.763 897.602 441.206 893.284 L 441.206 893.284 L 441.206 893.284 Q 438.65 888.967 438.65 883.628 L 438.65 883.628 L 438.65 883.628 Q 438.65 877.152 442.626 871.812 L 442.626 871.812 L 442.626 871.812 Q 446.603 866.472 454.669 863.291 L 454.669 863.291 L 454.669 863.291 Q 462.736 860.11 474.438 860.11 L 474.438 860.11 L 474.438 860.11 Q 482.163 860.11 489.548 861.644 L 489.548 861.644 L 489.548 861.644 Q 496.932 863.177 502.386 865.791 L 502.386 865.791 L 497.273 879.878 L 497.273 879.878 Q 486.821 874.993 475.119 874.993 L 475.119 874.993 L 475.119 874.993 Q 466.258 874.993 461.77 877.663 L 461.77 877.663 L 461.77 877.663 Q 457.282 880.333 457.282 884.877 L 457.282 884.877 L 457.282 884.877 Q 457.282 889.081 460.293 891.296 L 460.293 891.296 L 460.293 891.296 Q 463.304 893.512 469.439 893.512 L 469.439 893.512 L 491.138 893.512 L 491.138 908.054 L 468.302 908.054 L 468.302 908.054 Q 461.372 908.054 457.623 910.44 L 457.623 910.44 L 457.623 910.44 Q 453.874 912.826 453.874 917.37 L 453.874 917.37 L 453.874 917.37 Q 453.874 922.142 458.702 924.812 L 458.702 924.812 L 458.702 924.812 Q 463.531 927.481 473.529 927.481 L 473.529 927.481 L 473.529 927.481 Q 480.573 927.481 487.616 925.607 L 487.616 925.607 L 487.616 925.607 Q 494.66 923.732 499.546 920.324 L 499.546 920.324 Z  M 531.698 887.945 L 531.698 887.945 Q 534.879 883.514 540.275 881.242 L 540.275 881.242 L 540.275 881.242 Q 545.672 878.969 552.716 878.969 L 552.716 878.969 L 552.716 895.329 L 552.716 895.329 Q 549.762 895.102 548.739 895.102 L 548.739 895.102 L 548.739 895.102 Q 541.127 895.102 536.81 899.363 L 536.81 899.363 L 536.81 899.363 Q 532.493 903.623 532.493 912.144 L 532.493 912.144 L 532.493 941.001 L 514.769 941.001 L 514.769 879.878 L 531.698 879.878 L 531.698 887.945 Z  M 641.559 878.969 L 641.559 878.969 Q 653.034 878.969 659.794 885.729 L 659.794 885.729 L 659.794 885.729 Q 666.554 892.489 666.554 906.009 L 666.554 906.009 L 666.554 941.001 L 648.831 941.001 L 648.831 908.736 L 648.831 908.736 Q 648.831 901.464 645.82 897.886 L 645.82 897.886 L 645.82 897.886 Q 642.809 894.307 637.242 894.307 L 637.242 894.307 L 637.242 894.307 Q 630.994 894.307 627.358 898.34 L 627.358 898.34 L 627.358 898.34 Q 623.722 902.373 623.722 910.326 L 623.722 910.326 L 623.722 941.001 L 605.999 941.001 L 605.999 908.736 L 605.999 908.736 Q 605.999 894.307 594.411 894.307 L 594.411 894.307 L 594.411 894.307 Q 588.276 894.307 584.64 898.34 L 584.64 898.34 L 584.64 898.34 Q 581.005 902.373 581.005 910.326 L 581.005 910.326 L 581.005 941.001 L 563.281 941.001 L 563.281 879.878 L 580.209 879.878 L 580.209 886.922 L 580.209 886.922 Q 583.618 883.059 588.56 881.014 L 588.56 881.014 L 588.56 881.014 Q 593.502 878.969 599.41 878.969 L 599.41 878.969 L 599.41 878.969 Q 605.886 878.969 611.112 881.526 L 611.112 881.526 L 611.112 881.526 Q 616.338 884.082 619.519 888.967 L 619.519 888.967 L 619.519 888.967 Q 623.268 884.196 629.005 881.583 L 629.005 881.583 L 629.005 881.583 Q 634.743 878.969 641.559 878.969 L 641.559 878.969 Z  M 682.459 941.001 L 682.459 879.878 L 700.183 879.878 L 700.183 941.001 L 682.459 941.001 Z  M 691.321 871.357 L 691.321 871.357 Q 686.436 871.357 683.368 868.517 L 683.368 868.517 L 683.368 868.517 Q 680.301 865.677 680.301 861.473 L 680.301 861.473 L 680.301 861.473 Q 680.301 857.27 683.368 854.429 L 683.368 854.429 L 683.368 854.429 Q 686.436 851.589 691.321 851.589 L 691.321 851.589 L 691.321 851.589 Q 696.206 851.589 699.274 854.316 L 699.274 854.316 L 699.274 854.316 Q 702.341 857.042 702.341 861.133 L 702.341 861.133 L 702.341 861.133 Q 702.341 865.563 699.274 868.46 L 699.274 868.46 L 699.274 868.46 Q 696.206 871.357 691.321 871.357 L 691.321 871.357 Z  M 748.808 925.55 L 753.466 938.047 L 753.466 938.047 Q 750.853 939.979 747.047 940.944 L 747.047 940.944 L 747.047 940.944 Q 743.241 941.91 739.151 941.91 L 739.151 941.91 L 739.151 941.91 Q 728.131 941.91 722.223 936.343 L 722.223 936.343 L 722.223 936.343 Q 716.316 930.776 716.316 919.983 L 716.316 919.983 L 716.316 866.359 L 734.039 866.359 L 734.039 881.242 L 749.149 881.242 L 749.149 894.875 L 734.039 894.875 L 734.039 919.756 L 734.039 919.756 Q 734.039 923.619 735.97 925.72 L 735.97 925.72 L 735.97 925.72 Q 737.902 927.822 741.537 927.822 L 741.537 927.822 L 741.537 927.822 Q 745.627 927.822 748.808 925.55 L 748.808 925.55 Z  M 792.321 927.709 L 792.321 927.709 Q 797.093 927.709 800.785 926.288 L 800.785 926.288 L 800.785 926.288 Q 804.478 924.868 807.659 921.801 L 807.659 921.801 L 817.089 932.026 L 817.089 932.026 Q 808.454 941.91 791.867 941.91 L 791.867 941.91 L 791.867 941.91 Q 781.528 941.91 773.576 937.877 L 773.576 937.877 L 773.576 937.877 Q 765.623 933.844 761.306 926.686 L 761.306 926.686 L 761.306 926.686 Q 756.988 919.529 756.988 910.44 L 756.988 910.44 L 756.988 910.44 Q 756.988 901.464 761.249 894.25 L 761.249 894.25 L 761.249 894.25 Q 765.509 887.036 772.951 883.003 L 772.951 883.003 L 772.951 883.003 Q 780.392 878.969 789.708 878.969 L 789.708 878.969 L 789.708 878.969 Q 798.456 878.969 805.614 882.662 L 805.614 882.662 L 805.614 882.662 Q 812.771 886.354 817.032 893.341 L 817.032 893.341 L 817.032 893.341 Q 821.292 900.328 821.292 909.872 L 821.292 909.872 L 776.075 918.62 L 776.075 918.62 Q 778.006 923.164 782.153 925.436 L 782.153 925.436 L 782.153 925.436 Q 786.3 927.709 792.321 927.709 L 792.321 927.709 Z  M 789.708 892.376 L 789.708 892.376 Q 783.005 892.376 778.802 896.693 L 778.802 896.693 L 778.802 896.693 Q 774.598 901.01 774.371 908.622 L 774.371 908.622 L 804.137 902.828 L 804.137 902.828 Q 802.887 898.056 799.024 895.216 L 799.024 895.216 L 799.024 895.216 Q 795.162 892.376 789.708 892.376 L 789.708 892.376 Z " fill="rgb(12,34,132)"/><path d=" M 499.546 920.324 L 505.226 934.184 L 505.226 934.184 Q 499.546 938.047 490.968 940.206 L 490.968 940.206 L 490.968 940.206 Q 482.39 942.364 472.733 942.364 L 472.733 942.364 L 472.733 942.364 Q 460.691 942.364 452.283 939.354 L 452.283 939.354 L 452.283 939.354 Q 443.876 936.343 439.559 930.947 L 439.559 930.947 L 439.559 930.947 Q 435.242 925.55 435.242 918.62 L 435.242 918.62 L 435.242 918.62 Q 435.242 912.258 438.764 907.372 L 438.764 907.372 L 438.764 907.372 Q 442.286 902.487 448.421 900.101 L 448.421 900.101 L 448.421 900.101 Q 443.763 897.602 441.206 893.284 L 441.206 893.284 L 441.206 893.284 Q 438.65 888.967 438.65 883.628 L 438.65 883.628 L 438.65 883.628 Q 438.65 877.152 442.626 871.812 L 442.626 871.812 L 442.626 871.812 Q 446.603 866.472 454.669 863.291 L 454.669 863.291 L 454.669 863.291 Q 462.736 860.11 474.438 860.11 L 474.438 860.11 L 474.438 860.11 Q 482.163 860.11 489.548 861.644 L 489.548 861.644 L 489.548 861.644 Q 496.932 863.177 502.386 865.791 L 502.386 865.791 L 497.273 879.878 L 497.273 879.878 Q 486.821 874.993 475.119 874.993 L 475.119 874.993 L 475.119 874.993 Q 466.258 874.993 461.77 877.663 L 461.77 877.663 L 461.77 877.663 Q 457.282 880.333 457.282 884.877 L 457.282 884.877 L 457.282 884.877 Q 457.282 889.081 460.293 891.296 L 460.293 891.296 L 460.293 891.296 Q 463.304 893.512 469.439 893.512 L 469.439 893.512 L 491.138 893.512 L 491.138 908.054 L 468.302 908.054 L 468.302 908.054 Q 461.372 908.054 457.623 910.44 L 457.623 910.44 L 457.623 910.44 Q 453.874 912.826 453.874 917.37 L 453.874 917.37 L 453.874 917.37 Q 453.874 922.142 458.702 924.812 L 458.702 924.812 L 458.702 924.812 Q 463.531 927.481 473.529 927.481 L 473.529 927.481 L 473.529 927.481 Q 480.573 927.481 487.616 925.607 L 487.616 925.607 L 487.616 925.607 Q 494.66 923.732 499.546 920.324 L 499.546 920.324 Z  M 531.698 887.945 L 531.698 887.945 Q 534.879 883.514 540.275 881.242 L 540.275 881.242 L 540.275 881.242 Q 545.672 878.969 552.716 878.969 L 552.716 878.969 L 552.716 895.329 L 552.716 895.329 Q 549.762 895.102 548.739 895.102 L 548.739 895.102 L 548.739 895.102 Q 541.127 895.102 536.81 899.363 L 536.81 899.363 L 536.81 899.363 Q 532.493 903.623 532.493 912.144 L 532.493 912.144 L 532.493 941.001 L 514.769 941.001 L 514.769 879.878 L 531.698 879.878 L 531.698 887.945 Z  M 641.559 878.969 L 641.559 878.969 Q 653.034 878.969 659.794 885.729 L 659.794 885.729 L 659.794 885.729 Q 666.554 892.489 666.554 906.009 L 666.554 906.009 L 666.554 941.001 L 648.831 941.001 L 648.831 908.736 L 648.831 908.736 Q 648.831 901.464 645.82 897.886 L 645.82 897.886 L 645.82 897.886 Q 642.809 894.307 637.242 894.307 L 637.242 894.307 L 637.242 894.307 Q 630.994 894.307 627.358 898.34 L 627.358 898.34 L 627.358 898.34 Q 623.722 902.373 623.722 910.326 L 623.722 910.326 L 623.722 941.001 L 605.999 941.001 L 605.999 908.736 L 605.999 908.736 Q 605.999 894.307 594.411 894.307 L 594.411 894.307 L 594.411 894.307 Q 588.276 894.307 584.64 898.34 L 584.64 898.34 L 584.64 898.34 Q 581.005 902.373 581.005 910.326 L 581.005 910.326 L 581.005 941.001 L 563.281 941.001 L 563.281 879.878 L 580.209 879.878 L 580.209 886.922 L 580.209 886.922 Q 583.618 883.059 588.56 881.014 L 588.56 881.014 L 588.56 881.014 Q 593.502 878.969 599.41 878.969 L 599.41 878.969 L 599.41 878.969 Q 605.886 878.969 611.112 881.526 L 611.112 881.526 L 611.112 881.526 Q 616.338 884.082 619.519 888.967 L 619.519 888.967 L 619.519 888.967 Q 623.268 884.196 629.005 881.583 L 629.005 881.583 L 629.005 881.583 Q 634.743 878.969 641.559 878.969 L 641.559 878.969 Z  M 682.459 941.001 L 682.459 879.878 L 700.183 879.878 L 700.183 941.001 L 682.459 941.001 Z  M 691.321 871.357 L 691.321 871.357 Q 686.436 871.357 683.368 868.517 L 683.368 868.517 L 683.368 868.517 Q 680.301 865.677 680.301 861.473 L 680.301 861.473 L 680.301 861.473 Q 680.301 857.27 683.368 854.429 L 683.368 854.429 L 683.368 854.429 Q 686.436 851.589 691.321 851.589 L 691.321 851.589 L 691.321 851.589 Q 696.206 851.589 699.274 854.316 L 699.274 854.316 L 699.274 854.316 Q 702.341 857.042 702.341 861.133 L 702.341 861.133 L 702.341 861.133 Q 702.341 865.563 699.274 868.46 L 699.274 868.46 L 699.274 868.46 Q 696.206 871.357 691.321 871.357 L 691.321 871.357 Z  M 748.808 925.55 L 753.466 938.047 L 753.466 938.047 Q 750.853 939.979 747.047 940.944 L 747.047 940.944 L 747.047 940.944 Q 743.241 941.91 739.151 941.91 L 739.151 941.91 L 739.151 941.91 Q 728.131 941.91 722.223 936.343 L 722.223 936.343 L 722.223 936.343 Q 716.316 930.776 716.316 919.983 L 716.316 919.983 L 716.316 866.359 L 734.039 866.359 L 734.039 881.242 L 749.149 881.242 L 749.149 894.875 L 734.039 894.875 L 734.039 919.756 L 734.039 919.756 Q 734.039 923.619 735.97 925.72 L 735.97 925.72 L 735.97 925.72 Q 737.902 927.822 741.537 927.822 L 741.537 927.822 L 741.537 927.822 Q 745.627 927.822 748.808 925.55 L 748.808 925.55 Z  M 792.321 927.709 L 792.321 927.709 Q 797.093 927.709 800.785 926.288 L 800.785 926.288 L 800.785 926.288 Q 804.478 924.868 807.659 921.801 L 807.659 921.801 L 817.089 932.026 L 817.089 932.026 Q 808.454 941.91 791.867 941.91 L 791.867 941.91 L 791.867 941.91 Q 781.528 941.91 773.576 937.877 L 773.576 937.877 L 773.576 937.877 Q 765.623 933.844 761.306 926.686 L 761.306 926.686 L 761.306 926.686 Q 756.988 919.529 756.988 910.44 L 756.988 910.44 L 756.988 910.44 Q 756.988 901.464 761.249 894.25 L 761.249 894.25 L 761.249 894.25 Q 765.509 887.036 772.951 883.003 L 772.951 883.003 L 772.951 883.003 Q 780.392 878.969 789.708 878.969 L 789.708 878.969 L 789.708 878.969 Q 798.456 878.969 805.614 882.662 L 805.614 882.662 L 805.614 882.662 Q 812.771 886.354 817.032 893.341 L 817.032 893.341 L 817.032 893.341 Q 821.292 900.328 821.292 909.872 L 821.292 909.872 L 776.075 918.62 L 776.075 918.62 Q 778.006 923.164 782.153 925.436 L 782.153 925.436 L 782.153 925.436 Q 786.3 927.709 792.321 927.709 L 792.321 927.709 Z  M 789.708 892.376 L 789.708 892.376 Q 783.005 892.376 778.802 896.693 L 778.802 896.693 L 778.802 896.693 Q 774.598 901.01 774.371 908.622 L 774.371 908.622 L 804.137 902.828 L 804.137 902.828 Q 802.887 898.056 799.024 895.216 L 799.024 895.216 L 799.024 895.216 Q 795.162 892.376 789.708 892.376 L 789.708 892.376 Z " fill="rgb(12,34,132)" mask="url(#_mask_GMBBXczgl0ckZ0q937prUbRT7sDYM132)" vector-effect="non-scaling-stroke" stroke-width="10" stroke="rgb(232,232,232)" stroke-linejoin="round" stroke-linecap="round" stroke-miterlimit="3"/><mask id="_mask_EZJUFCXUhIttMBqmrZIZxSQypkiqkngn" x="-200%" y="-200%" width="400%" height="400%"><rect x="-200%" y="-200%" width="400%" height="400%" style="fill:white;"/><path d=" M 248.238 869.994 L 241.989 883.741 L 241.989 883.741 Q 231.764 877.833 220.062 876.129 L 220.062 876.129 L 220.062 941.001 L 201.657 941.001 L 201.657 876.129 L 201.657 876.129 Q 189.955 877.833 179.617 883.741 L 179.617 883.741 L 173.368 869.994 L 173.368 869.994 Q 181.548 865.109 191.091 862.609 L 191.091 862.609 L 191.091 862.609 Q 200.635 860.11 210.746 860.11 L 210.746 860.11 L 210.746 860.11 Q 220.971 860.11 230.571 862.609 L 230.571 862.609 L 230.571 862.609 Q 240.171 865.109 248.238 869.994 L 248.238 869.994 Z  M 292.432 878.969 L 292.432 878.969 Q 303.794 878.969 310.781 885.786 L 310.781 885.786 L 310.781 885.786 Q 317.768 892.603 317.768 906.009 L 317.768 906.009 L 317.768 941.001 L 300.044 941.001 L 300.044 908.736 L 300.044 908.736 Q 300.044 901.464 296.863 897.886 L 296.863 897.886 L 296.863 897.886 Q 293.682 894.307 287.661 894.307 L 287.661 894.307 L 287.661 894.307 Q 280.958 894.307 276.981 898.454 L 276.981 898.454 L 276.981 898.454 Q 273.005 902.601 273.005 910.781 L 273.005 910.781 L 273.005 941.001 L 255.282 941.001 L 255.282 856.702 L 273.005 856.702 L 273.005 886.241 L 273.005 886.241 Q 276.527 882.719 281.526 880.844 L 281.526 880.844 L 281.526 880.844 Q 286.525 878.969 292.432 878.969 L 292.432 878.969 Z  M 365.257 927.709 L 365.257 927.709 Q 370.029 927.709 373.721 926.288 L 373.721 926.288 L 373.721 926.288 Q 377.414 924.868 380.595 921.801 L 380.595 921.801 L 390.024 932.026 L 390.024 932.026 Q 381.39 941.91 364.803 941.91 L 364.803 941.91 L 364.803 941.91 Q 354.464 941.91 346.511 937.877 L 346.511 937.877 L 346.511 937.877 Q 338.559 933.844 334.241 926.686 L 334.241 926.686 L 334.241 926.686 Q 329.924 919.529 329.924 910.44 L 329.924 910.44 L 329.924 910.44 Q 329.924 901.464 334.185 894.25 L 334.185 894.25 L 334.185 894.25 Q 338.445 887.036 345.887 883.003 L 345.887 883.003 L 345.887 883.003 Q 353.328 878.969 362.644 878.969 L 362.644 878.969 L 362.644 878.969 Q 371.392 878.969 378.55 882.662 L 378.55 882.662 L 378.55 882.662 Q 385.707 886.354 389.968 893.341 L 389.968 893.341 L 389.968 893.341 Q 394.228 900.328 394.228 909.872 L 394.228 909.872 L 349.011 918.62 L 349.011 918.62 Q 350.942 923.164 355.089 925.436 L 355.089 925.436 L 355.089 925.436 Q 359.236 927.709 365.257 927.709 L 365.257 927.709 Z  M 362.644 892.376 L 362.644 892.376 Q 355.941 892.376 351.737 896.693 L 351.737 896.693 L 351.737 896.693 Q 347.534 901.01 347.307 908.622 L 347.307 908.622 L 377.073 902.828 L 377.073 902.828 Q 375.823 898.056 371.96 895.216 L 371.96 895.216 L 371.96 895.216 Q 368.098 892.376 362.644 892.376 L 362.644 892.376 Z " fill="black" stroke="none"/></mask><path d=" M 248.238 869.994 L 241.989 883.741 L 241.989 883.741 Q 231.764 877.833 220.062 876.129 L 220.062 876.129 L 220.062 941.001 L 201.657 941.001 L 201.657 876.129 L 201.657 876.129 Q 189.955 877.833 179.617 883.741 L 179.617 883.741 L 173.368 869.994 L 173.368 869.994 Q 181.548 865.109 191.091 862.609 L 191.091 862.609 L 191.091 862.609 Q 200.635 860.11 210.746 860.11 L 210.746 860.11 L 210.746 860.11 Q 220.971 860.11 230.571 862.609 L 230.571 862.609 L 230.571 862.609 Q 240.171 865.109 248.238 869.994 L 248.238 869.994 Z  M 292.432 878.969 L 292.432 878.969 Q 303.794 878.969 310.781 885.786 L 310.781 885.786 L 310.781 885.786 Q 317.768 892.603 317.768 906.009 L 317.768 906.009 L 317.768 941.001 L 300.044 941.001 L 300.044 908.736 L 300.044 908.736 Q 300.044 901.464 296.863 897.886 L 296.863 897.886 L 296.863 897.886 Q 293.682 894.307 287.661 894.307 L 287.661 894.307 L 287.661 894.307 Q 280.958 894.307 276.981 898.454 L 276.981 898.454 L 276.981 898.454 Q 273.005 902.601 273.005 910.781 L 273.005 910.781 L 273.005 941.001 L 255.282 941.001 L 255.282 856.702 L 273.005 856.702 L 273.005 886.241 L 273.005 886.241 Q 276.527 882.719 281.526 880.844 L 281.526 880.844 L 281.526 880.844 Q 286.525 878.969 292.432 878.969 L 292.432 878.969 Z  M 365.257 927.709 L 365.257 927.709 Q 370.029 927.709 373.721 926.288 L 373.721 926.288 L 373.721 926.288 Q 377.414 924.868 380.595 921.801 L 380.595 921.801 L 390.024 932.026 L 390.024 932.026 Q 381.39 941.91 364.803 941.91 L 364.803 941.91 L 364.803 941.91 Q 354.464 941.91 346.511 937.877 L 346.511 937.877 L 346.511 937.877 Q 338.559 933.844 334.241 926.686 L 334.241 926.686 L 334.241 926.686 Q 329.924 919.529 329.924 910.44 L 329.924 910.44 L 329.924 910.44 Q 329.924 901.464 334.185 894.25 L 334.185 894.25 L 334.185 894.25 Q 338.445 887.036 345.887 883.003 L 345.887 883.003 L 345.887 883.003 Q 353.328 878.969 362.644 878.969 L 362.644 878.969 L 362.644 878.969 Q 371.392 878.969 378.55 882.662 L 378.55 882.662 L 378.55 882.662 Q 385.707 886.354 389.968 893.341 L 389.968 893.341 L 389.968 893.341 Q 394.228 900.328 394.228 909.872 L 394.228 909.872 L 349.011 918.62 L 349.011 918.62 Q 350.942 923.164 355.089 925.436 L 355.089 925.436 L 355.089 925.436 Q 359.236 927.709 365.257 927.709 L 365.257 927.709 Z  M 362.644 892.376 L 362.644 892.376 Q 355.941 892.376 351.737 896.693 L 351.737 896.693 L 351.737 896.693 Q 347.534 901.01 347.307 908.622 L 347.307 908.622 L 377.073 902.828 L 377.073 902.828 Q 375.823 898.056 371.96 895.216 L 371.96 895.216 L 371.96 895.216 Q 368.098 892.376 362.644 892.376 L 362.644 892.376 Z " fill="rgb(25,32,64)"/><path d=" M 248.238 869.994 L 241.989 883.741 L 241.989 883.741 Q 231.764 877.833 220.062 876.129 L 220.062 876.129 L 220.062 941.001 L 201.657 941.001 L 201.657 876.129 L 201.657 876.129 Q 189.955 877.833 179.617 883.741 L 179.617 883.741 L 173.368 869.994 L 173.368 869.994 Q 181.548 865.109 191.091 862.609 L 191.091 862.609 L 191.091 862.609 Q 200.635 860.11 210.746 860.11 L 210.746 860.11 L 210.746 860.11 Q 220.971 860.11 230.571 862.609 L 230.571 862.609 L 230.571 862.609 Q 240.171 865.109 248.238 869.994 L 248.238 869.994 Z  M 292.432 878.969 L 292.432 878.969 Q 303.794 878.969 310.781 885.786 L 310.781 885.786 L 310.781 885.786 Q 317.768 892.603 317.768 906.009 L 317.768 906.009 L 317.768 941.001 L 300.044 941.001 L 300.044 908.736 L 300.044 908.736 Q 300.044 901.464 296.863 897.886 L 296.863 897.886 L 296.863 897.886 Q 293.682 894.307 287.661 894.307 L 287.661 894.307 L 287.661 894.307 Q 280.958 894.307 276.981 898.454 L 276.981 898.454 L 276.981 898.454 Q 273.005 902.601 273.005 910.781 L 273.005 910.781 L 273.005 941.001 L 255.282 941.001 L 255.282 856.702 L 273.005 856.702 L 273.005 886.241 L 273.005 886.241 Q 276.527 882.719 281.526 880.844 L 281.526 880.844 L 281.526 880.844 Q 286.525 878.969 292.432 878.969 L 292.432 878.969 Z  M 365.257 927.709 L 365.257 927.709 Q 370.029 927.709 373.721 926.288 L 373.721 926.288 L 373.721 926.288 Q 377.414 924.868 380.595 921.801 L 380.595 921.801 L 390.024 932.026 L 390.024 932.026 Q 381.39 941.91 364.803 941.91 L 364.803 941.91 L 364.803 941.91 Q 354.464 941.91 346.511 937.877 L 346.511 937.877 L 346.511 937.877 Q 338.559 933.844 334.241 926.686 L 334.241 926.686 L 334.241 926.686 Q 329.924 919.529 329.924 910.44 L 329.924 910.44 L 329.924 910.44 Q 329.924 901.464 334.185 894.25 L 334.185 894.25 L 334.185 894.25 Q 338.445 887.036 345.887 883.003 L 345.887 883.003 L 345.887 883.003 Q 353.328 878.969 362.644 878.969 L 362.644 878.969 L 362.644 878.969 Q 371.392 878.969 378.55 882.662 L 378.55 882.662 L 378.55 882.662 Q 385.707 886.354 389.968 893.341 L 389.968 893.341 L 389.968 893.341 Q 394.228 900.328 394.228 909.872 L 394.228 909.872 L 349.011 918.62 L 349.011 918.62 Q 350.942 923.164 355.089 925.436 L 355.089 925.436 L 355.089 925.436 Q 359.236 927.709 365.257 927.709 L 365.257 927.709 Z  M 362.644 892.376 L 362.644 892.376 Q 355.941 892.376 351.737 896.693 L 351.737 896.693 L 351.737 896.693 Q 347.534 901.01 347.307 908.622 L 347.307 908.622 L 377.073 902.828 L 377.073 902.828 Q 375.823 898.056 371.96 895.216 L 371.96 895.216 L 371.96 895.216 Q 368.098 892.376 362.644 892.376 L 362.644 892.376 Z " fill="rgb(25,32,64)" mask="url(#_mask_EZJUFCXUhIttMBqmrZIZxSQypkiqkngn)" vector-effect="non-scaling-stroke" stroke-width="10" stroke="rgb(232,232,232)" stroke-linejoin="round" stroke-linecap="round" stroke-miterlimit="3"/><g><mask id="_mask_Oo5OmR5d95zSYvUjJzLd4VpKDXBJeA9R"><circle vector-effect="non-scaling-stroke" cx="500.00000000000006" cy="430.1291666666666" r="401.04722222222244" fill="white" stroke="none"/></mask><circle vector-effect="non-scaling-stroke" cx="500.00000000000006" cy="430.1291666666666" r="401.04722222222244" fill="rgb(235,235,235)"/><circle vector-effect="non-scaling-stroke" cx="500.00000000000006" cy="430.1291666666666" r="401.04722222222244" fill="rgb(235,235,235)" mask="url(#_mask_Oo5OmR5d95zSYvUjJzLd4VpKDXBJeA9R)" stroke-width="70" stroke="rgb(232,232,232)" stroke-linejoin="miter" stroke-linecap="square" stroke-miterlimit="3"/><mask id="_mask_Bm3dpSKSHzDgPGwIg8Pl5szahUZ5YXEo"><circle vector-effect="non-scaling-stroke" cx="500.00000000000017" cy="430.1291666666668" r="387.413888888889" fill="white" stroke="none"/></mask><circle vector-effect="non-scaling-stroke" cx="500.00000000000017" cy="430.1291666666668" r="387.413888888889" fill="rgb(235,235,235)"/><circle vector-effect="non-scaling-stroke" cx="500.00000000000017" cy="430.1291666666668" r="387.413888888889" fill="rgb(235,235,235)" mask="url(#_mask_Bm3dpSKSHzDgPGwIg8Pl5szahUZ5YXEo)" stroke-width="70" stroke="rgb(25,32,64)" stroke-linejoin="miter" stroke-linecap="square" stroke-miterlimit="3"/><mask id="_mask_cqhtAn7RVo3kSWs4QIMpqQYTd0vjmkTS"><circle vector-effect="non-scaling-stroke" cx="500.87336418108043" cy="428.4372950504279" r="211.12663581891923" fill="white" stroke="none"/></mask><circle vector-effect="non-scaling-stroke" cx="500.87336418108043" cy="428.4372950504279" r="211.12663581891923" fill="rgb(235,235,235)"/><circle vector-effect="non-scaling-stroke" cx="500.87336418108043" cy="428.4372950504279" r="211.12663581891923" fill="rgb(235,235,235)" mask="url(#_mask_cqhtAn7RVo3kSWs4QIMpqQYTd0vjmkTS)" stroke-width="50" stroke="rgb(235,235,235)" stroke-linejoin="miter" stroke-linecap="square" stroke-miterlimit="3"/><path d=" M 577.955 624.404 L 832.155 624.404 L 706.451 406.678 C 707.473 415.014 708 423.503 708 432.114 C 708 519.195 654.146 593.798 577.955 624.404 Z  M 423.78 624.404 L 169.895 624.404 L 295.2 407.369 C 294.232 415.483 293.734 423.741 293.734 432.114 C 293.734 519.195 347.589 593.798 423.78 624.404 Z  M 376.549 266.469 L 501.025 50.87 L 625.744 266.89 C 591.014 240.59 547.749 224.981 500.867 224.981 C 454.236 224.981 411.184 240.423 376.549 266.469 Z " fill-rule="evenodd" fill="rgb(12,34,132)"/><mask id="_mask_YYF8vkT87HGnc39uqKkwV1mSoX194tQh"><circle vector-effect="non-scaling-stroke" cx="501.99718024176383" cy="428.4250000000002" r="165.57499999999976" fill="white" stroke="none"/></mask><circle vector-effect="non-scaling-stroke" cx="501.99718024176383" cy="428.4250000000002" r="165.57499999999976" fill="none"/><circle vector-effect="non-scaling-stroke" cx="501.99718024176383" cy="428.4250000000002" r="165.57499999999976" fill="none" mask="url(#_mask_YYF8vkT87HGnc39uqKkwV1mSoX194tQh)" stroke-width="70" stroke="rgb(11,177,249)" stroke-linejoin="miter" stroke-linecap="square" stroke-miterlimit="3"/><path d=" M 528.796 506.249 L 633.651 506.249 L 581.875 416.57 C 582.57 420.84 582.931 425.221 582.931 429.686 C 582.931 465.011 560.321 495.097 528.796 506.249 Z  M 474.695 506.249 L 369.966 506.249 L 421.568 416.871 C 420.905 421.046 420.56 425.326 420.56 429.686 C 420.56 465.011 443.17 495.097 474.695 506.249 Z  M 450.526 366.713 L 501.808 277.89 L 553.203 366.908 C 539.192 355.407 521.269 348.501 501.746 348.501 C 482.333 348.501 464.502 355.329 450.526 366.713 Z " fill-rule="evenodd" fill="rgb(25,32,64)"/></g></g></svg>